# xmcd
#
# Track frame offsets:
#	225
#	16060
#	34511
#	43073
#	50943
#	65361
#	78001
#	95382
#	112470
#	124133
#	131070
#	141565
#	162544
#	169532
#	174637
#	182576
#	185444
#	190413
#	214884
#	226006
#	239382
#	261166
#
# Disc length: 3951 seconds
#
# Revision: 4
# Processed by: cddbd v1.5.2PL0 Copyright (c) Steve Scherf et al.
# Submitted via: EZCDAudioConverter 1.2.3.1
#
DISCID=400f6c16
DTITLE=Wolfgang Lendle, Josef Szapka - The Spanish Guitar
DYEAR=1999
DGENRE=Clssical Guitar
TTITLE0=Georges Bizet - Habanera
TTITLE1=Jorge Morel - Romance criollo
TTITLE2=Bossa En Re (trad.)
TTITLE3=Isaias Savio - Batucada
TTITLE4=Agustin Barrios Mangoré - Don Perez Freire
TTITLE5=Joaquin Malats - Serenata Espagnola
TTITLE6=Isaac Albeniez - Rumores de la Caleta
TTITLE7=Isaac Albeniez - Malaguena
TTITLE8=Manuel De Falla - Danza del molinero
TTITLE9=Antonio Lauro - Valse Venezolano
TTITLE10=Isaias Savio - Cajita de musica
TTITLE11=Heitor Villa Lobos - Choros I
TTITLE12=Vincente Sojo - Five pieces from Venezuela - (1) Cantico
TTITLE13=Vincente Sojo - Five pieces from Venezuela - (2) Aquinaldo
TTITLE14=Vincente Sojo - Five pieces from Venezuela - (3) Cancion
TTITLE15=Vincente Sojo - Five pieces from Venezuela - (4) Aire Venezolano
TTITLE16=Vincente Sojo - Five pieces from Venezuela - (5) Galeron
TTITLE17=Joaquin Turina - Fandanguillo
TTITLE18=Miguel Llobet - El Testament d´Ameilia
TTITLE19=Federico Moreno Torroba - Madronos
TTITLE20=Manuel De Falla - Homenaje
TTITLE21=Fernando Sor - Introduction and variations
EXTD=
EXTT0=
EXTT1=
EXTT2=
EXTT3=
EXTT4=
EXTT5=
EXTT6=
EXTT7=
EXTT8=
EXTT9=
EXTT10=
EXTT11=
EXTT12=
EXTT13=
EXTT14=
EXTT15=
EXTT16=
EXTT17=
EXTT18=
EXTT19=
EXTT20=
EXTT21=
PLAYORDER=
